<?xml version="1.0" standalone="no"?>
<!DOCTYPE svg PUBLIC "-//W3C//DTD SVG 20010904//EN"
 "http://www.w3.org/TR/2001/REC-SVG-20010904/DTD/svg10.dtd">
<svg version="1.0" xmlns="http://www.w3.org/2000/svg"
 width="1064.000000pt" height="1010.000000pt" viewBox="0 0 1064.000000 1010.000000"
 preserveAspectRatio="xMidYMid meet">

<g transform="translate(0.000000,1010.000000) scale(0.100000,-0.100000)"
fill="#000000" stroke="none">
<path d="M5015 9661 c-418 -27 -911 -138 -1315 -296 -232 -91 -550 -250 -720
-359 -353 -228 -552 -387 -820 -656 -226 -226 -430 -477 -582 -715 -24 -38
-53 -83 -64 -100 -10 -16 -24 -39 -30 -50 -6 -11 -28 -49 -49 -85 -243 -423
-429 -944 -514 -1445 -98 -574 -83 -1170 45 -1740 13 -60 27 -120 29 -132 6
-24 -8 -30 210 97 17 10 86 50 155 90 69 40 139 80 155 90 17 10 84 49 150 87
66 38 206 119 310 180 105 60 251 145 325 188 210 122 426 247 595 345 85 49
225 131 310 180 85 50 226 131 313 181 86 51 231 135 322 187 91 52 177 102
192 111 15 9 82 48 150 87 103 59 237 137 403 234 17 10 86 50 155 90 69 40
139 80 155 90 35 20 199 116 435 252 91 53 179 104 197 114 18 11 87 51 155
90 68 39 194 112 281 163 86 50 227 132 312 181 85 50 225 131 310 180 283
164 458 266 630 365 94 54 186 107 205 118 102 59 123 70 116 59 -5 -9 -115
-90 -192 -142 -13 -8 -167 -118 -344 -245 -177 -126 -331 -237 -343 -245 -12
-8 -120 -85 -239 -170 -490 -350 -584 -417 -639 -455 -63 -44 -620 -441 -684
-487 -22 -16 -143 -103 -270 -193 -126 -90 -241 -172 -255 -182 -63 -45 -408
-290 -430 -305 -14 -9 -160 -113 -325 -232 -165 -118 -315 -225 -333 -238 -18
-12 -48 -34 -67 -48 -37 -28 -226 -162 -316 -225 -60 -42 -568 -404 -957 -682
-125 -89 -256 -183 -292 -208 -36 -26 -128 -92 -205 -147 -77 -55 -156 -111
-175 -124 -127 -86 -215 -154 -212 -166 11 -49 183 -370 284 -529 l54 -86 129
75 c122 70 333 193 400 232 96 56 929 538 960 556 11 6 76 44 145 84 69 40
194 113 278 162 83 48 222 129 307 178 289 168 459 267 650 377 105 60 250
145 324 188 74 42 149 85 165 95 17 10 86 50 154 89 67 39 177 103 245 142 67
39 136 79 152 89 17 10 86 50 155 90 69 40 139 80 155 90 17 10 116 67 220
127 105 61 235 136 290 168 55 32 114 66 130 75 34 20 265 154 310 180 56 33
280 163 430 250 83 48 190 110 238 139 49 28 91 51 93 51 16 0 -30 -35 -256
-196 -138 -99 -353 -252 -478 -341 -125 -89 -242 -172 -260 -185 -18 -13 -48
-34 -67 -48 -45 -34 -244 -175 -316 -225 -56 -39 -521 -371 -947 -675 -120
-85 -227 -162 -239 -170 -12 -8 -113 -80 -224 -160 -112 -80 -213 -152 -226
-160 -26 -17 -589 -419 -648 -462 -22 -17 -245 -175 -495 -354 -250 -178 -493
-351 -540 -384 -84 -61 -515 -367 -578 -412 -18 -13 -48 -34 -67 -48 -18 -14
-68 -49 -109 -78 l-76 -54 19 -26 c25 -34 315 -322 325 -322 4 0 26 11 49 24
38 21 247 142 322 186 53 31 407 236 640 370 45 26 276 160 310 180 50 29 270
157 433 251 83 49 223 130 310 181 86 50 229 133 317 183 88 51 214 124 280
162 66 39 192 112 280 163 88 51 174 101 190 110 17 10 86 50 155 90 69 40
139 80 155 90 17 10 86 50 155 90 69 40 139 80 155 90 17 10 116 67 220 127
105 61 235 136 290 168 55 32 114 66 130 75 34 20 265 154 310 180 17 10 86
50 155 90 69 40 139 80 155 90 39 23 237 138 435 253 85 50 225 130 310 179
281 162 547 317 755 438 17 10 86 50 155 90 69 40 139 80 155 90 92 54 291
169 398 231 67 39 126 74 131 79 13 13 -52 265 -125 485 -54 161 -87 247 -161
415 -37 83 -160 324 -201 395 -23 39 -46 78 -52 87 -151 258 -417 597 -656
838 -251 252 -610 536 -859 678 -19 11 -78 44 -130 74 -232 132 -563 277 -810
354 -167 52 -206 63 -310 88 -350 83 -609 115 -975 120 -154 3 -334 1 -400 -3z"/>
<path d="M9587 6024 c-65 -46 -142 -101 -171 -122 -30 -20 -145 -102 -257
-182 -112 -80 -213 -152 -225 -160 -12 -8 -82 -58 -154 -110 -73 -52 -142
-102 -154 -110 -30 -21 -453 -323 -501 -358 -22 -16 -260 -186 -530 -377 -269
-191 -508 -361 -530 -377 -93 -68 -463 -332 -492 -352 -18 -11 -176 -124 -353
-251 -177 -126 -331 -237 -343 -245 -20 -14 -335 -237 -417 -296 -19 -14 -138
-99 -265 -189 -126 -90 -241 -172 -255 -182 -14 -10 -158 -112 -320 -228 -162
-116 -306 -218 -320 -228 -14 -10 -113 -81 -220 -157 -107 -77 -224 -160 -260
-186 -409 -291 -385 -271 -431 -357 -30 -57 -33 -69 -32 -152 0 -81 3 -96 30
-150 41 -79 113 -146 188 -173 17 -6 64 -25 105 -42 90 -38 346 -124 444 -151
425 -113 785 -161 1196 -162 789 -1 1557 203 2220 588 63 37 124 72 135 79 39
22 232 153 309 211 302 223 626 539 866 845 135 173 302 423 392 590 295 543
452 1038 530 1665 20 154 23 225 22 500 0 288 -3 341 -28 530 -15 116 -35 247
-44 292 l-17 82 -118 -85z"/>
</g>
</svg>
